<svg id="Calque_1" data-name="Calque 1" xmlns="http://www.w3.org/2000/svg" viewBox="0 0 2001 2001"><defs><style>.cls-1{fill:#f7931a;}.cls-2{fill:#fff;}</style></defs><path class="cls-1" d="M1971,1242.63C1837.47,1778.57,1294.48,2104.76,758.38,1971S-103.76,1294.54,30,758.55,706.48-103.78,1242.46,30,2104.78,706.5,1971,1242.63Z"/><path class="cls-2" d="M1441.74,858c19.89-133.14-81.48-204.71-220.12-252.46l45-180.34-109.82-27.36L1113,573.39c-28.84-7.18-58.47-14-87.93-20.69l44-176.76-109.7-27.35-44.9,180.27L693,474,663.81,591.28s81.47,18.67,79.74,19.83C788,622.22,796.08,651.64,794.72,675L671.52,1169c-5.45,13.51-19.23,33.76-50.31,26,1.1,1.6-79.8-20-79.8-20L486.9,1300.89,708,1356.72l-45.45,182.44,109.66,27.36,45-180.49c30,8.13,59,15.63,87.47,22.69l-44.84,179.65,109.79,27.35,45.45-182.09c187.22,35.42,328,21.13,387.2-148.08,47.74-136.32-2.34-215-100.85-266.27,71.73-16.61,125.76-63.77,140.18-161.26m-250.84,351.71c-34,136.32-263.49,62.65-337.95,44.14l60.29-241.67c74.42,18.57,313.06,55.34,277.7,197.51m34-353.69c-31,124.07-222,61-284,45.57l54.59-219.26c62,15.49,261.64,44.32,229.37,173.68"/></svg>