<svg id="Calque_1" data-name="Calque 1" xmlns="http://www.w3.org/2000/svg" viewBox="0 0 2001 2001"><defs><style>.cls-1{fill:#f2f4f7;}.cls-2{fill:#343434;}.cls-3{fill:#8c8c8c;}.cls-4{fill:#3c3c3b;}.cls-5{fill:#141414;}.cls-6{fill:#393939;}</style></defs><path class="cls-1" d="M1000.5,2000.5c554.17,0,1000-445.83,1000-1000S1554.67.5,1000.5.5.5,446.33.5,1000.5,446.33,2000.5,1000.5,2000.5Z"/><polygon class="cls-2" points="1000.38 356.71 991.75 386.05 991.75 1237.43 1000.38 1246.04 1395.58 1012.44 1000.38 356.71"/><polygon class="cls-3" points="1000.38 356.71 605.19 1012.44 1000.38 1246.05 1000.38 832.81 1000.38 356.71"/><polygon class="cls-4" points="1000.38 1320.87 995.52 1326.8 995.52 1630.08 1000.38 1644.29 1395.81 1087.39 1000.38 1320.87"/><polygon class="cls-3" points="1000.38 1644.28 1000.38 1320.87 605.19 1087.38 1000.38 1644.28"/><polygon class="cls-5" points="1000.38 1246.04 1395.57 1012.44 1000.38 832.82 1000.38 1246.04"/><polygon class="cls-6" points="605.19 1012.44 1000.38 1246.04 1000.38 832.82 605.19 1012.44"/></svg>