<svg id="Calque_1" data-name="Calque 1" xmlns="http://www.w3.org/2000/svg" xmlns:xlink="http://www.w3.org/1999/xlink" viewBox="0 0 3500 2001"><defs><style>.cls-1{fill:#2775ca;}.cls-2{fill:#fff;}.cls-3{fill:url(#Adsız_degrade_5);}.cls-4{fill:url(#Adsız_degrade_5-2);}.cls-5{fill:url(#Adsız_degrade_5-3);}.cls-6{fill:url(#Adsız_degrade_5-4);}</style><linearGradient id="Adsız_degrade_5" x1="1345.24" y1="10071.19" x2="169.08" y2="9603.35" gradientTransform="matrix(1, 0, 0, -1, 242.34, 10835.17)" gradientUnits="userSpaceOnUse"><stop offset="0" stop-color="#c200fb"/><stop offset="0.49" stop-color="#3772ff"/><stop offset="0.49" stop-color="#3773fe"/><stop offset="1" stop-color="#5ac4be"/></linearGradient><linearGradient id="Adsız_degrade_5-2" x1="1322.8" y1="10127.62" x2="146.64" y2="9659.77" xlink:href="#Adsız_degrade_5"/><linearGradient id="Adsız_degrade_5-3" x1="1439.92" y1="9833.17" x2="263.76" y2="9365.32" xlink:href="#Adsız_degrade_5"/><linearGradient id="Adsız_degrade_5-4" x1="1313.94" y1="10149.65" x2="137.78" y2="9681.81" xlink:href="#Adsız_degrade_5"/></defs><path class="cls-1" d="M2500,2000.5c554.17,0,1000-445.83,1000-1000S3054.17.5,2500,.5s-1000,445.83-1000,1000S1945.83,2000.5,2500,2000.5Z"/><path class="cls-2" d="M2775,1158.83c0-145.83-87.5-195.83-262.5-216.66-125-16.67-150-50-150-108.34s41.67-95.83,125-95.83c75,0,116.67,25,137.5,87.5,4.17,12.5,16.67,20.83,29.17,20.83h66.66c16.67,0,29.17-12.5,29.17-29.16V813c-16.67-91.67-91.67-162.5-187.5-170.83v-100c0-16.67-12.5-29.17-33.33-33.34h-62.5c-16.67,0-29.17,12.5-33.34,33.34V638c-125,16.67-204.16,100-204.16,204.17,0,137.5,83.33,191.66,258.33,212.5,116.67,20.83,154.17,45.83,154.17,112.5s-58.34,112.5-137.5,112.5c-108.34,0-145.84-45.84-158.34-108.34-4.16-16.66-16.66-25-29.16-25h-70.84c-16.66,0-29.16,12.5-29.16,29.17v4.17c16.66,104.16,83.33,179.16,220.83,200v100c0,16.66,12.5,29.16,33.33,33.33h62.5c16.67,0,29.17-12.5,33.34-33.33v-100c125-20.84,208.33-108.34,208.33-220.84Z"/><path class="cls-2" d="M2287.5,1596.33c-325-116.66-491.67-479.16-370.83-800,62.5-175,200-308.33,370.83-370.83,16.67-8.33,25-20.83,25-41.67V325.5c0-16.67-8.33-29.17-25-33.33-4.17,0-12.5,0-16.67,4.16-395.83,125-612.5,545.84-487.5,941.67,75,233.33,254.17,412.5,487.5,487.5,16.67,8.33,33.34,0,37.5-16.67,4.17-4.16,4.17-8.33,4.17-16.66v-58.34C2312.5,1621.33,2300,1604.67,2287.5,1596.33Zm441.67-1300c-16.67-8.33-33.34,0-37.5,16.67-4.17,4.17-4.17,8.33-4.17,16.67V388c0,16.67,12.5,33.33,25,41.67,325,116.66,491.67,479.16,370.83,800-62.5,175-200,308.33-370.83,370.83-16.67,8.33-25,20.83-25,41.67v58.33c0,16.67,8.33,29.17,25,33.33,4.17,0,12.5,0,16.67-4.16,395.83-125,612.5-545.84,487.5-941.67-75-237.5-258.34-416.67-487.5-491.67Z"/><path d="M1000,1997.7c554.17,0,1000-445.83,1000-1000S1554.17-2.3,1000-2.3,0,443.53,0,997.7,445.83,1997.7,1000,1997.7Z"/><path class="cls-3" d="M1496,837.36V1285.7l-496,287.85L503.7,1285.7v-576L1000,421.57,1381.21,643l57.55-33.38L1000,354.82,446.16,676.33v642.74L1000,1640.58l553.84-321.51V804Z"/><path class="cls-4" d="M861.12,1286h-83v-279.8h276.65a99.29,99.29,0,0,0,69.6-29.62,100.34,100.34,0,0,0,28.88-70.23,98.44,98.44,0,0,0-98.48-99H778.13v-85.1h276.92a183.79,183.79,0,0,1,129.18,54.25,185.74,185.74,0,0,1,54,129.86,185.51,185.51,0,0,1-112,169.94,318,318,0,0,1-99,15h-166Z"/><path class="cls-5" d="M1236.25,1279h-96.83l-74.69-131a314,314,0,0,0,86.59-17.8Z"/><path class="cls-6" d="M1438.2,744.19l57.27,32,57.26-32V676.61l-57.26-33.38-57.27,33.38Z"/></svg>