<svg id="Calque_1" data-name="Calque 1" xmlns="http://www.w3.org/2000/svg" viewBox="0 0 3500 2001"><defs><style>.cls-1{fill:#2775ca;}.cls-2{fill:#fff;}.cls-3{fill:#6966fb;fill-rule:evenodd;}</style></defs><path class="cls-1" d="M2500,2000.5c554.17,0,1000-445.83,1000-1000S3054.17.5,2500,.5s-1000,445.83-1000,1000S1945.83,2000.5,2500,2000.5Z"/><path class="cls-2" d="M2775,1158.83c0-145.83-87.5-195.83-262.5-216.66-125-16.67-150-50-150-108.34s41.67-95.83,125-95.83c75,0,116.67,25,137.5,87.5,4.17,12.5,16.67,20.83,29.17,20.83h66.66c16.67,0,29.17-12.5,29.17-29.16V813c-16.67-91.67-91.67-162.5-187.5-170.83v-100c0-16.67-12.5-29.17-33.33-33.34h-62.5c-16.67,0-29.17,12.5-33.34,33.34V638c-125,16.67-204.16,100-204.16,204.17,0,137.5,83.33,191.66,258.33,212.5,116.67,20.83,154.17,45.83,154.17,112.5s-58.34,112.5-137.5,112.5c-108.34,0-145.84-45.84-158.34-108.34-4.16-16.66-16.66-25-29.16-25h-70.84c-16.66,0-29.16,12.5-29.16,29.17v4.17c16.66,104.16,83.33,179.16,220.83,200v100c0,16.66,12.5,29.16,33.33,33.33h62.5c16.67,0,29.17-12.5,33.34-33.33v-100c125-20.84,208.33-108.34,208.33-220.84Z"/><path class="cls-2" d="M2287.5,1596.33c-325-116.66-491.67-479.16-370.83-800,62.5-175,200-308.33,370.83-370.83,16.67-8.33,25-20.83,25-41.67V325.5c0-16.67-8.33-29.17-25-33.33-4.17,0-12.5,0-16.67,4.16-395.83,125-612.5,545.84-487.5,941.67,75,233.33,254.17,412.5,487.5,487.5,16.67,8.33,33.34,0,37.5-16.67,4.17-4.16,4.17-8.33,4.17-16.66v-58.34C2312.5,1621.33,2300,1604.67,2287.5,1596.33Zm441.67-1300c-16.67-8.33-33.34,0-37.5,16.67-4.17,4.17-4.17,8.33-4.17,16.67V388c0,16.67,12.5,33.33,25,41.67,325,116.66,491.67,479.16,370.83,800-62.5,175-200,308.33-370.83,370.83-16.67,8.33-25,20.83-25,41.67v58.33c0,16.67,8.33,29.17,25,33.33,4.17,0,12.5,0,16.67-4.16,395.83-125,612.5-545.84,487.5-941.67-75-237.5-258.34-416.67-487.5-491.67Z"/><path d="M1000,2000.5c554.17,0,1000-445.83,1000-1000S1554.17.5,1000,.5,0,446.33,0,1000.5,445.83,2000.5,1000,2000.5Z"/><path class="cls-3" d="M1509.85,541.63a51,51,0,0,0-51-51H692.2q-50.25,0-87.94,14.58-37.68,15.69-62.81,41.49a173.07,173.07,0,0,0-38.74,60.55A209.74,209.74,0,0,0,490.15,679V796.56a102,102,0,0,0,102,102h611.82L898,694.59h560.84a51,51,0,0,0,51-51ZM490.15,1459.36a51,51,0,0,0,51,51H1307.8q50.25,0,87.93-14.58,37.69-15.69,62.82-41.49a173.16,173.16,0,0,0,38.74-60.55,209.74,209.74,0,0,0,12.56-71.77V1204.44a102,102,0,0,0-102-102H796.06L1102,1306.41H541.13a51,51,0,0,0-51,51Z"/></svg>