<svg id="Calque_1" data-name="Calque 1" xmlns="http://www.w3.org/2000/svg" xmlns:xlink="http://www.w3.org/1999/xlink" viewBox="0 0 3500 2001"><defs><style>.cls-1{fill:#2775ca;}.cls-2{fill:#fff;}.cls-3{fill:url(#Dégradé_sans_nom_8);}.cls-4{fill:url(#Dégradé_sans_nom_8-2);}.cls-5{fill:url(#Dégradé_sans_nom_8-3);}.cls-6{fill:url(#Dégradé_sans_nom_8-4);}.cls-7{fill:url(#Dégradé_sans_nom_8-5);}.cls-8{fill:url(#Dégradé_sans_nom_8-6);}.cls-9{fill:url(#Dégradé_sans_nom_8-7);}.cls-10{fill:url(#Dégradé_sans_nom_8-8);}</style><linearGradient id="Dégradé_sans_nom_8" x1="1255.95" y1="10429.16" x2="551.52" y2="9878.3" gradientTransform="matrix(1, 0, 0, -1, 0, 10716.13)" gradientUnits="userSpaceOnUse"><stop offset="0" stop-color="red"/><stop offset="1" stop-color="#ffc700"/></linearGradient><linearGradient id="Dégradé_sans_nom_8-2" x1="992.7" y1="10326.61" x2="331.05" y2="9622.64" xlink:href="#Dégradé_sans_nom_8"/><linearGradient id="Dégradé_sans_nom_8-3" x1="821.41" y1="9996.14" x2="168.75" y2="9370.68" xlink:href="#Dégradé_sans_nom_8"/><linearGradient id="Dégradé_sans_nom_8-4" x1="1068.73" y1="9513.81" x2="299.51" y2="8982.72" xlink:href="#Dégradé_sans_nom_8"/><linearGradient id="Dégradé_sans_nom_8-5" x1="1451.51" y1="9517.21" x2="744.85" y2="8972.3" xlink:href="#Dégradé_sans_nom_8"/><linearGradient id="Dégradé_sans_nom_8-6" x1="1648.2" y1="9783.68" x2="1002.27" y2="9073.23" xlink:href="#Dégradé_sans_nom_8"/><linearGradient id="Dégradé_sans_nom_8-7" x1="1815.87" y1="10047.78" x2="1167.62" y2="9413.56" xlink:href="#Dégradé_sans_nom_8"/><linearGradient id="Dégradé_sans_nom_8-8" x1="1656.3" y1="10420.07" x2="887.68" y2="9907.04" xlink:href="#Dégradé_sans_nom_8"/></defs><path class="cls-1" d="M2500,2000.5c554.17,0,1000-445.83,1000-1000S3054.17.5,2500,.5s-1000,445.83-1000,1000S1945.83,2000.5,2500,2000.5Z"/><path class="cls-2" d="M2775,1158.83c0-145.83-87.5-195.83-262.5-216.66-125-16.67-150-50-150-108.34s41.67-95.83,125-95.83c75,0,116.67,25,137.5,87.5,4.17,12.5,16.67,20.83,29.17,20.83h66.66c16.67,0,29.17-12.5,29.17-29.16V813c-16.67-91.67-91.67-162.5-187.5-170.83v-100c0-16.67-12.5-29.17-33.33-33.34h-62.5c-16.67,0-29.17,12.5-33.34,33.34V638c-125,16.67-204.16,100-204.16,204.17,0,137.5,83.33,191.66,258.33,212.5,116.67,20.83,154.17,45.83,154.17,112.5s-58.34,112.5-137.5,112.5c-108.34,0-145.84-45.84-158.34-108.34-4.16-16.66-16.66-25-29.16-25h-70.84c-16.66,0-29.16,12.5-29.16,29.17v4.17c16.66,104.16,83.33,179.16,220.83,200v100c0,16.66,12.5,29.16,33.33,33.33h62.5c16.67,0,29.17-12.5,33.34-33.33v-100c125-20.84,208.33-108.34,208.33-220.84Z"/><path class="cls-2" d="M2287.5,1596.33c-325-116.66-491.67-479.16-370.83-800,62.5-175,200-308.33,370.83-370.83,16.67-8.33,25-20.83,25-41.67V325.5c0-16.67-8.33-29.17-25-33.33-4.17,0-12.5,0-16.67,4.16-395.83,125-612.5,545.84-487.5,941.67,75,233.33,254.17,412.5,487.5,487.5,16.67,8.33,33.34,0,37.5-16.67,4.17-4.16,4.17-8.33,4.17-16.66v-58.34C2312.5,1621.33,2300,1604.67,2287.5,1596.33Zm441.67-1300c-16.67-8.33-33.34,0-37.5,16.67-4.17,4.17-4.17,8.33-4.17,16.67V388c0,16.67,12.5,33.33,25,41.67,325,116.66,491.67,479.16,370.83,800-62.5,175-200,308.33-370.83,370.83-16.67,8.33-25,20.83-25,41.67v58.33c0,16.67,8.33,29.17,25,33.33,4.17,0,12.5,0,16.67-4.16,395.83-125,612.5-545.84,487.5-941.67-75-237.5-258.34-416.67-487.5-491.67Z"/><path d="M1000,2000.5c554.17,0,1000-445.83,1000-1000S1554.17.5,1000,.5,0,446.33,0,1000.5,445.83,2000.5,1000,2000.5Z"/><path class="cls-3" d="M745.28,377.88l112,106.36c42,39.19,64.38,92.37,64.38,151.15a209.68,209.68,0,0,0,61.58,148.35l14,14L1126,380.68"/><path class="cls-4" d="M364.61,750.16l153.95-5.6c56-2.8,112,19.59,151.15,58.78s92.37,58.78,148.35,58.78h19.59L630.52,478.65"/><path class="cls-5" d="M364.61,1282l103.57-112c39.18-42,92.37-67.18,148.35-67.18s106.36-25.19,145.55-64.38l14-14L356.21,904.1"/><path class="cls-6" d="M745.28,1651.46l-8.39-154a210.45,210.45,0,0,1,56-154c36.39-39.19,58.78-95.17,56-148.35v-19.6L468.18,1391.14"/><path class="cls-7" d="M1277.11,1640.26l-114.76-100.77c-42-36.39-67.18-89.57-70-148.35-2.8-56-28-106.36-67.18-145.55l-14-14-112,422.65"/><path class="cls-8" d="M1641,1251.19l-154,11.19c-56,5.6-112-14-154-53.18-42-36.39-95.17-56-151.15-53.18h-19.59l223.92,375.08"/><path class="cls-9" d="M1615.8,722.16l-98,117.57c-36.39,42-89.57,70-145.55,72.77s-106.37,28-142.76,70l-11.19,14,425.46,100.77"/><path class="cls-10" d="M1221.13,366.68l14,154c5.6,56-11.19,112-50.38,156.75-36.39,42-53.18,95.17-50.38,151.15l2.79,19.59L1506.63,615.8"/></svg>